<mxfile host="app.diagrams.net" modified="2020-09-15T08:01:48.241Z" agent="5.0 (Windows NT 10.0; Win64; x64) AppleWebKit/537.36 (KHTML, like Gecko) Chrome/73.0.3683.86 Safari/537.36" etag="e5Wklv9fr2gL82uBxUDJ" version="13.6.9" type="github">
  <diagram id="ZRQz9ME3hKb9kxL6iAQY" name="第 1 页">
    <mxGraphModel dx="1422" dy="745" grid="1" gridSize="10" guides="1" tooltips="1" connect="1" arrows="1" fold="1" page="1" pageScale="1" pageWidth="827" pageHeight="1169" math="0" shadow="0">
      <root>
        <mxCell id="0" />
        <mxCell id="1" parent="0" />
        <mxCell id="HOsM-SKX_ZB2SJQ54d1c-3" value="" style="edgeStyle=orthogonalEdgeStyle;rounded=0;orthogonalLoop=1;jettySize=auto;html=1;" edge="1" parent="1" source="HOsM-SKX_ZB2SJQ54d1c-1" target="HOsM-SKX_ZB2SJQ54d1c-2">
          <mxGeometry relative="1" as="geometry" />
        </mxCell>
        <mxCell id="HOsM-SKX_ZB2SJQ54d1c-1" value="" style="rounded=0;whiteSpace=wrap;html=1;" vertex="1" parent="1">
          <mxGeometry x="350" y="350" width="120" height="60" as="geometry" />
        </mxCell>
        <mxCell id="HOsM-SKX_ZB2SJQ54d1c-5" value="" style="edgeStyle=orthogonalEdgeStyle;rounded=0;orthogonalLoop=1;jettySize=auto;html=1;" edge="1" parent="1" source="HOsM-SKX_ZB2SJQ54d1c-2" target="HOsM-SKX_ZB2SJQ54d1c-4">
          <mxGeometry relative="1" as="geometry" />
        </mxCell>
        <mxCell id="HOsM-SKX_ZB2SJQ54d1c-7" value="" style="edgeStyle=orthogonalEdgeStyle;rounded=0;orthogonalLoop=1;jettySize=auto;html=1;" edge="1" parent="1" source="HOsM-SKX_ZB2SJQ54d1c-2" target="HOsM-SKX_ZB2SJQ54d1c-6">
          <mxGeometry relative="1" as="geometry" />
        </mxCell>
        <mxCell id="HOsM-SKX_ZB2SJQ54d1c-2" value="" style="rounded=0;whiteSpace=wrap;html=1;" vertex="1" parent="1">
          <mxGeometry x="350" y="490" width="120" height="60" as="geometry" />
        </mxCell>
        <mxCell id="HOsM-SKX_ZB2SJQ54d1c-4" value="" style="rounded=0;whiteSpace=wrap;html=1;" vertex="1" parent="1">
          <mxGeometry x="550" y="490" width="120" height="60" as="geometry" />
        </mxCell>
        <mxCell id="HOsM-SKX_ZB2SJQ54d1c-6" value="" style="rounded=0;whiteSpace=wrap;html=1;" vertex="1" parent="1">
          <mxGeometry x="150" y="490" width="120" height="60" as="geometry" />
        </mxCell>
      </root>
    </mxGraphModel>
  </diagram>
</mxfile>
